ply
format ascii 1.0
element vertex 14
property float x
property float y
property float z
property float s
property float t
element face 12
property list uchar int vertex_index
end_header
-1 -1 0 0.375 0
-1 -1 2 0.625 0
-1 1 2 0.625 0.25
-1 1 0 0.375 0.25
1 1 2 0.625 0.5
1 1 0 0.375 0.5
1 -1 2 0.625 0.75
1 -1 0 0.375 0.75
-1 -1 2 0.625 1
-1 -1 0 0.375 1
-1 1 0 0.125 0.5
-1 -1 0 0.125 0.75
-1 1 2 0.875 0.5
-1 -1 2 0.875 0.75
3 0 1 3
3 1 2 3
3 3 2 5
3 2 4 5
3 5 4 7
3 4 6 7
3 7 6 9
3 6 8 9
3 10 5 11
3 5 7 11
3 4 12 6
3 12 13 6

